<svg xmlns="http://www.w3.org/2000/svg" version="1.1" xmlns:xlink="http://www.w3.org/1999/xlink" xmlns:svgjs="http://svgjs.dev/svgjs" width="1000" height="1000" viewBox="0 0 1000 1000"><rect width="1000" height="1000" fill="#1f0f53"></rect><g transform="matrix(0.7,0,0,0.7,149.57597050476716,382.0347100072979)"><svg viewBox="0 0 396 134" data-background-color="#1f0f53" preserveAspectRatio="xMidYMid meet" height="338" width="1000" xmlns="http://www.w3.org/2000/svg" xmlns:xlink="http://www.w3.org/1999/xlink"><g id="tight-bounds" transform="matrix(1,0,0,1,0.2398795430174232,-0.18956526195236734)"><svg viewBox="0 0 395.52 134.3788896099396" height="134.3788896099396" width="395.52"><g><svg viewBox="0 0 641.5070981923411 217.95360925359347" height="134.3788896099396" width="395.52"><g transform="matrix(1,0,0,1,0,64.66835316956855)"><svg viewBox="0 0 395.52 88.61690291445639" height="88.61690291445639" width="395.52"><g><svg viewBox="0 0 395.52 88.61690291445639" height="88.61690291445639" width="395.52"><g><svg viewBox="0 0 395.52 59.37386464263124" height="59.37386464263124" width="395.52"><g transform="matrix(1,0,0,1,0,0)"><svg width="395.52" viewBox="5.699999809265137 -35.29999923706055 237.58999633789062 35.599998474121094" height="59.37386464263124" data-palette-color="#ffdb99"><g class="undefined-text-0" data-fill-palette-color="primary" id="text-0"><path d="M31.3-35L34.95-35 34.95 0 31.3 0 31.3-16.15 9.4-16.15 9.4 0 5.7 0 5.7-35 9.4-35 9.4-19.4 31.3-19.4 31.3-35ZM61.65 0.3Q56.45 0.3 52.22-2.02 48-4.35 45.62-8.4 43.25-12.45 43.25-17.5L43.25-17.5Q43.25-22.55 45.62-26.6 48-30.65 52.22-32.98 56.45-35.3 61.65-35.3L61.65-35.3Q66.85-35.3 71.02-33 75.2-30.7 77.6-26.63 80-22.55 80-17.5L80-17.5Q80-12.45 77.6-8.38 75.2-4.3 71.02-2 66.85 0.3 61.65 0.3L61.65 0.3ZM61.65-3Q65.8-3 69.15-4.88 72.5-6.75 74.4-10.08 76.3-13.4 76.3-17.5L76.3-17.5Q76.3-21.6 74.4-24.93 72.5-28.25 69.15-30.13 65.8-32 61.65-32L61.65-32Q57.5-32 54.12-30.13 50.75-28.25 48.82-24.93 46.9-21.6 46.9-17.5L46.9-17.5Q46.9-13.4 48.82-10.08 50.75-6.75 54.12-4.88 57.5-3 61.65-3L61.65-3ZM116.25 0L112.2 0 104.2-11.25Q102.85-11.1 101.4-11.1L101.4-11.1 92-11.1 92 0 88.3 0 88.3-35 101.4-35Q108.1-35 111.9-31.8 115.7-28.6 115.7-23L115.7-23Q115.7-18.9 113.62-16.07 111.55-13.25 107.7-12L107.7-12 116.25 0ZM101.3-14.25Q106.5-14.25 109.25-16.55 112-18.85 112-23L112-23Q112-27.25 109.25-29.53 106.5-31.8 101.3-31.8L101.3-31.8 92-31.8 92-14.25 101.3-14.25ZM124.44 0L124.44-35 128.14-35 128.14 0 124.44 0ZM141.04-3.2L164.79-3.2 164.79 0 136.09 0 136.09-2.55 159.29-31.8 136.44-31.8 136.44-35 164.19-35 164.19-32.45 141.04-3.2ZM187.39 0.3Q182.19 0.3 177.96-2.02 173.74-4.35 171.36-8.4 168.99-12.45 168.99-17.5L168.99-17.5Q168.99-22.55 171.36-26.6 173.74-30.65 177.96-32.98 182.19-35.3 187.39-35.3L187.39-35.3Q192.59-35.3 196.76-33 200.94-30.7 203.34-26.63 205.74-22.55 205.74-17.5L205.74-17.5Q205.74-12.45 203.34-8.38 200.94-4.3 196.76-2 192.59 0.3 187.39 0.3L187.39 0.3ZM187.39-3Q191.54-3 194.89-4.88 198.24-6.75 200.14-10.08 202.04-13.4 202.04-17.5L202.04-17.5Q202.04-21.6 200.14-24.93 198.24-28.25 194.89-30.13 191.54-32 187.39-32L187.39-32Q183.24-32 179.86-30.13 176.49-28.25 174.56-24.93 172.64-21.6 172.64-17.5L172.64-17.5Q172.64-13.4 174.56-10.08 176.49-6.75 179.86-4.88 183.24-3 187.39-3L187.39-3ZM239.64-35L243.29-35 243.29 0 240.24 0 217.74-28.4 217.74 0 214.04 0 214.04-35 217.09-35 239.64-6.6 239.64-35Z" fill="#ffdb99" data-fill-palette-color="primary"></path></g></svg></g></svg></g><g transform="matrix(1,0,0,1,163.310208,73.39060911200505)"><svg viewBox="0 0 232.209792 15.226293802451332" height="15.226293802451332" width="232.209792"><g transform="matrix(1,0,0,1,0,0)"><svg width="232.209792" viewBox="2.2699999809265137 -40.43000030517578 643.3399658203125 42.189998626708984" height="15.226293802451332" data-palette-color="#ff5db2"><path d="M14.58-14.06L14.58 0 12.82 0 12.82-40.43 32.28-40.43 32.28-38.67 14.58-38.67 14.58-36.91 32.28-36.91 32.28-35.16 14.58-35.16 14.58-33.4 32.28-33.4 32.28-31.64 14.58-31.64 14.58-22.85 31.45-22.85 31.45-21.09 14.58-21.09 14.58-19.34 31.45-19.34 31.45-17.58 14.58-17.58 14.58-15.82 31.45-15.82 31.45-14.06 14.58-14.06ZM11.06-40.43L11.06 0 9.3 0 9.3-40.43 11.06-40.43ZM7.54-40.43L7.54 0 5.79 0 5.79-40.43 7.54-40.43ZM4.03-40.43L4.03 0 2.27 0 2.27-40.43 4.03-40.43ZM49.86-22.55Q47.8-20.48 47.8-17.58 47.8-14.67 49.86-12.61 51.93-10.55 54.83-10.55 57.74-10.55 59.8-12.61 61.86-14.67 61.86-17.58 61.86-20.48 59.8-22.55 57.74-24.61 54.83-24.61 51.93-24.61 49.86-22.55ZM48.62-11.36Q46.04-13.94 46.04-17.58 46.04-21.22 48.62-23.79 51.19-26.37 54.83-26.37 58.47-26.37 61.04-23.79 63.62-21.22 63.62-17.58 63.62-13.94 61.04-11.36 58.47-8.79 54.83-8.79 51.19-8.79 48.62-11.36ZM47.37-25.02Q44.28-21.92 44.28-17.58 44.28-13.23 47.37-10.13 50.46-7.03 54.83-7.03 59.2-7.03 62.29-10.13 65.38-13.23 65.38-17.58 65.38-21.92 62.29-25.02 59.2-28.13 54.83-28.13 50.46-28.13 47.37-25.02ZM44.17-11.4Q42.53-14.23 42.53-17.58 42.53-20.92 44.17-23.75 45.82-26.59 48.65-28.23 51.49-29.88 54.83-29.88 58.18-29.88 61.01-28.23 63.84-26.59 65.49-23.75 67.14-20.92 67.14-17.58 67.14-14.23 65.49-11.4 63.84-8.57 61.01-6.92 58.18-5.27 54.83-5.27 51.49-5.27 48.65-6.92 45.82-8.57 44.17-11.4ZM41.88-23.03Q40.77-20.43 40.77-17.58 40.77-14.72 41.88-12.12 42.99-9.52 44.88-7.63 46.77-5.74 49.37-4.63 51.98-3.52 54.83-3.52 57.69-3.52 60.29-4.63 62.89-5.74 64.78-7.63 66.67-9.52 67.78-12.12 68.89-14.72 68.89-17.58 68.89-20.43 67.78-23.03 66.67-25.63 64.78-27.53 62.89-29.42 60.29-30.53 57.69-31.64 54.83-31.64 51.98-31.64 49.37-30.53 46.77-29.42 44.88-27.53 42.99-25.63 41.88-23.03ZM40.27-11.43Q39.01-14.36 39.01-17.58 39.01-20.8 40.27-23.73 41.53-26.66 43.64-28.77 45.75-30.88 48.68-32.14 51.61-33.4 54.83-33.4 58.05-33.4 60.98-32.14 63.91-30.88 66.03-28.77 68.14-26.66 69.39-23.73 70.65-20.8 70.65-17.58 70.65-14.36 69.39-11.43 68.14-8.5 66.03-6.38 63.91-4.27 60.98-3.02 58.05-1.76 54.83-1.76 51.61-1.76 48.68-3.02 45.75-4.27 43.64-6.38 41.53-8.5 40.27-11.43ZM38.64-24.4Q37.25-21.14 37.25-17.58 37.25-14.01 38.64-10.75 40.04-7.5 42.39-5.14 44.75-2.78 48.01-1.39 51.27 0 54.83 0 58.4 0 61.66-1.39 64.91-2.78 67.27-5.14 69.63-7.5 71.02-10.75 72.41-14.01 72.41-17.58 72.41-21.14 71.02-24.4 69.63-27.66 67.27-30.02 64.91-32.37 61.66-33.76 58.4-35.16 54.83-35.16 51.27-35.16 48.01-33.76 44.75-32.37 42.39-30.02 40.04-27.66 38.64-24.4ZM37.03-10.07Q35.5-13.65 35.5-17.58 35.5-21.51 37.03-25.09 38.57-28.66 41.16-31.25 43.75-33.84 47.32-35.38 50.9-36.91 54.83-36.91 58.76-36.91 62.34-35.38 65.92-33.84 68.5-31.25 71.09-28.66 72.63-25.09 74.17-21.51 74.17-17.58 74.17-13.65 72.63-10.07 71.09-6.49 68.5-3.91 65.92-1.32 62.34 0.22 58.76 1.76 54.83 1.76 50.9 1.76 47.32 0.22 43.75-1.32 41.16-3.91 38.57-6.49 37.03-10.07ZM91.38-15.04L91.38-16.8 101.97-16.8Q104.07-16.8 105.54-18.12 107-19.43 107-21.83L107-21.83Q107-23.58 105.48-24.98 103.95-26.37 101.97-26.37L101.97-26.37 86.88-26.37 86.88 0 85.13 0 85.13-28.13 101.97-28.13Q104.68-28.13 106.72-26.22 108.76-24.32 108.76-21.83L108.76-21.83Q108.76-18.73 106.78-16.88 104.8-15.04 101.97-15.04L101.97-15.04 91.38-15.04ZM91.38-11.52L91.38-13.28 101.97-13.28Q105.49-13.28 108-15.67 110.52-18.07 110.52-21.83L110.52-21.83Q110.52-25.02 107.95-27.45 105.39-29.88 101.97-29.88L101.97-29.88 83.37-29.88 83.37 0 81.61 0 81.61-31.64 101.97-31.64Q106.12-31.64 109.2-28.7 112.28-25.76 112.28-21.83L112.28-21.83Q112.28-17.43 109.24-14.48 106.2-11.52 101.97-11.52L101.97-11.52 91.38-11.52ZM91.38-8.01L91.38-9.77 101.97-9.77Q105.22-9.77 107.98-11.33 110.74-12.89 112.39-15.67 114.03-18.46 114.03-21.83L114.03-21.83Q114.03-24.88 112.4-27.55 110.76-30.22 107.97-31.81 105.17-33.4 101.97-33.4L101.97-33.4 79.85-33.4 79.85 0 78.1 0 78.1-35.16 101.97-35.16Q104.73-35.16 107.28-34.07 109.83-32.98 111.69-31.19 113.54-29.39 114.67-26.93 115.79-24.46 115.79-21.83L115.79-21.83Q115.79-17.55 113.84-14.37 111.88-11.18 108.59-9.52L108.59-9.52 112.28 0 110.4 0 106.9-8.81Q106.25-8.59 105.37-8.37L105.37-8.37 108.66 0 106.78 0 103.56-8.08Q102.8-8.01 101.97-8.01L101.97-8.01 105.07 0 103.22 0 100.14-8.01 98.55-8.01 101.51 0 99.65 0 96.67-8.01 91.38-8.01ZM90.4-22.85L90.4 0 88.64 0 88.64-24.61 101.97-24.61Q103.34-24.61 104.29-23.79 105.24-22.97 105.24-21.83L105.24-21.83Q105.24-18.55 101.97-18.55L101.97-18.55 91.38-18.55 91.38-20.31 101.97-20.31Q103.49-20.31 103.49-21.83L103.49-21.83Q103.49-22.24 103.03-22.55 102.58-22.85 101.97-22.85L101.97-22.85 90.4-22.85ZM128.46-35.16L128.46 0 126.7 0 126.7-35.16 128.46-35.16ZM124.94-35.16L124.94 0 123.19 0 123.19-35.16 124.94-35.16ZM121.43-35.16L121.43 0 119.67 0 119.67-35.16 121.43-35.16ZM131.97-13.21L131.97-8.79 148.8-8.79 148.8-7.03 131.97-7.03 131.97-5.27 148.8-5.27 148.8-3.52 131.97-3.52 131.97-1.76 148.8-1.76 148.8 0 130.22 0 130.22-35.16 148.8-35.16 148.8-33.4 131.97-33.4 131.97-31.64 148.8-31.64 148.8-29.88 131.97-29.88 131.97-28.13 148.8-28.13 148.8-26.37 131.97-26.37 131.97-22 147.82-22 147.82-20.24 131.97-20.24 131.97-18.48 147.82-18.48 147.82-16.72 131.97-16.72 131.97-14.97 147.82-14.97 147.82-13.21 131.97-13.21ZM165.54 0L151.63-35.16 153.53-35.16 166.49-2.37 179.46-35.16 181.34-35.16 167.45 0 165.54 0ZM166.71-6.54L155.41-35.16 157.29-35.16 167.71-8.79 166.71-6.54ZM168.67-11.18L159.19-35.16 161.1-35.16 169.59-13.6 168.67-11.18ZM170.52-16.02L162.98-35.16 164.86-35.16 171.45-18.48 170.52-16.02ZM176.89 0L190.79-35.16 192.69-35.16 178.77 0 176.89 0ZM173.11 0L187.03-35.16 188.91-35.16 174.99 0 173.11 0ZM169.33 0L183.22-35.16 185.12-35.16 171.21 0 169.33 0ZM204.58-35.16L204.58 0 202.82 0 202.82-35.16 204.58-35.16ZM201.06-35.16L201.06 0 199.3 0 199.3-35.16 201.06-35.16ZM197.55-35.16L197.55 0 195.79 0 195.79-35.16 197.55-35.16ZM208.09-13.21L208.09-8.79 224.91-8.79 224.91-7.03 208.09-7.03 208.09-5.27 224.91-5.27 224.91-3.52 208.09-3.52 208.09-1.76 224.91-1.76 224.91 0 206.34 0 206.34-35.16 224.91-35.16 224.91-33.4 208.09-33.4 208.09-31.64 224.91-31.64 224.91-29.88 208.09-29.88 208.09-28.13 224.91-28.13 224.91-26.37 208.09-26.37 208.09-22 223.94-22 223.94-20.24 208.09-20.24 208.09-18.48 223.94-18.48 223.94-16.72 208.09-16.72 208.09-14.97 223.94-14.97 223.94-13.21 208.09-13.21ZM242.42-15.04L242.42-16.8 253.01-16.8Q255.11-16.8 256.58-18.12 258.04-19.43 258.04-21.83L258.04-21.83Q258.04-23.58 256.52-24.98 254.99-26.37 253.01-26.37L253.01-26.37 237.92-26.37 237.92 0 236.17 0 236.17-28.13 253.01-28.13Q255.72-28.13 257.76-26.22 259.8-24.32 259.8-21.83L259.8-21.83Q259.8-18.73 257.82-16.88 255.84-15.04 253.01-15.04L253.01-15.04 242.42-15.04ZM242.42-11.52L242.42-13.28 253.01-13.28Q256.53-13.28 259.04-15.67 261.56-18.07 261.56-21.83L261.56-21.83Q261.56-25.02 258.99-27.45 256.43-29.88 253.01-29.88L253.01-29.88 234.41-29.88 234.41 0 232.65 0 232.65-31.64 253.01-31.64Q257.16-31.64 260.24-28.7 263.32-25.76 263.32-21.83L263.32-21.83Q263.32-17.43 260.28-14.48 257.24-11.52 253.01-11.52L253.01-11.52 242.42-11.52ZM242.42-8.01L242.42-9.77 253.01-9.77Q256.26-9.77 259.02-11.33 261.78-12.89 263.42-15.67 265.07-18.46 265.07-21.83L265.07-21.83Q265.07-24.88 263.44-27.55 261.8-30.22 259.01-31.81 256.21-33.4 253.01-33.4L253.01-33.4 230.89-33.4 230.89 0 229.14 0 229.14-35.16 253.01-35.16Q255.77-35.16 258.32-34.07 260.87-32.98 262.73-31.19 264.58-29.39 265.71-26.93 266.83-24.46 266.83-21.83L266.83-21.83Q266.83-17.55 264.88-14.37 262.92-11.18 259.63-9.52L259.63-9.52 263.32 0 261.44 0 257.94-8.81Q257.28-8.59 256.41-8.37L256.41-8.37 259.7 0 257.82 0 254.6-8.08Q253.84-8.01 253.01-8.01L253.01-8.01 256.11 0 254.26 0 251.18-8.01 249.59-8.01 252.55 0 250.69 0 247.71-8.01 242.42-8.01ZM241.44-22.85L241.44 0 239.68 0 239.68-24.61 253.01-24.61Q254.38-24.61 255.33-23.79 256.28-22.97 256.28-21.83L256.28-21.83Q256.28-18.55 253.01-18.55L253.01-18.55 242.42-18.55 242.42-20.31 253.01-20.31Q254.53-20.31 254.53-21.83L254.53-21.83Q254.53-22.24 254.07-22.55 253.62-22.85 253.01-22.85L253.01-22.85 241.44-22.85ZM301.08 0L301.08-17.33Q301.08-20.46 299.15-22.17 297.22-23.88 294.05-23.88L294.05-23.88Q291.36-23.88 289.43-22.02 287.5-20.17 287.5-17.58L287.5-17.58Q287.5-16.11 287.9-14.95 288.29-13.79 288.96-13.02 289.63-12.26 290.56-11.76 291.48-11.25 292.5-11.04 293.51-10.82 294.66-10.82L294.66-10.82Q297.44-10.82 299.74-12.18L299.74-12.18 299.74-10.42Q297.37-9.18 294.63-9.18L294.63-9.18Q292.88-9.18 291.33-9.66 289.77-10.13 288.51-11.1 287.24-12.06 286.49-13.73 285.75-15.41 285.75-17.58L285.75-17.58Q285.75-20.95 288.11-23.29 290.48-25.63 294.05-25.63L294.05-25.63Q297.98-25.63 300.41-23.43 302.84-21.22 302.84-17.33L302.84-17.33 302.84 0 301.08 0ZM306.35-17.33L306.35-17.33 306.35 0 304.59 0 304.59-17.33Q304.59-21.95 301.64-24.67 298.69-27.39 294.05-27.39L294.05-27.39Q289.75-27.39 286.87-24.54 283.99-21.68 283.99-17.58L283.99-17.58Q283.99-15.09 284.86-13.11 285.72-11.13 287.21-9.94 288.7-8.74 290.54-8.12 292.39-7.5 294.44-7.5L294.44-7.5Q297.22-7.5 299.74-8.79L299.74-8.79 299.74-6.93Q297.1-5.83 294.41-5.83L294.41-5.83Q292-5.83 289.82-6.58 287.65-7.32 285.94-8.75 284.23-10.18 283.23-12.46 282.23-14.75 282.23-17.58L282.23-17.58Q282.23-22.39 285.64-25.77 289.04-29.15 294.05-29.15L294.05-29.15Q297.56-29.15 300.35-27.72 303.13-26.29 304.74-23.58 306.35-20.87 306.35-17.33ZM309.87-17.33L309.87-17.33 309.87 0 308.11 0 308.11-17.33Q308.11-21.36 306.27-24.48 304.42-27.59 301.23-29.25 298.03-30.91 294.05-30.91L294.05-30.91Q290.26-30.91 287.14-29.11 284.01-27.32 282.24-24.27 280.47-21.22 280.47-17.58L280.47-17.58Q280.47-14.45 281.62-11.88 282.77-9.3 284.71-7.64 286.65-5.98 289.13-5.07 291.61-4.15 294.32-4.15L294.32-4.15Q297.07-4.15 299.74-5.3L299.74-5.3 299.74-3.52Q296.95-2.47 294.27-2.47L294.27-2.47Q290.04-2.47 286.5-4.37 282.96-6.27 280.84-9.77 278.72-13.26 278.72-17.58L278.72-17.58Q278.72-20.65 279.9-23.44 281.08-26.22 283.11-28.25 285.14-30.27 287.99-31.47 290.85-32.67 294.05-32.67L294.05-32.67Q298.52-32.67 302.12-30.76 305.72-28.86 307.79-25.34 309.87-21.83 309.87-17.33ZM313.38-17.33L313.38-17.33 313.38 0 311.63 0 311.63-17.33Q311.63-22.31 309.31-26.23 306.99-30.15 302.98-32.29 298.98-34.42 294.05-34.42L294.05-34.42Q289.31-34.42 285.38-32.15 281.45-29.88 279.2-26.01 276.96-22.14 276.96-17.58L276.96-17.58Q276.96-14.58 277.92-11.88 278.89-9.18 280.56-7.17 282.23-5.15 284.42-3.69 286.6-2.22 289.13-1.46 291.65-0.71 294.27-0.71L294.27-0.71Q297.15-0.71 299.74-1.81L299.74-1.81 299.74 0Q297.03 0.95 294.17 0.95L294.17 0.95Q291.22 0.95 288.42 0.12 285.62-0.71 283.24-2.33 280.86-3.96 279.06-6.16 277.25-8.37 276.23-11.33 275.2-14.28 275.2-17.58L275.2-17.58Q275.2-21.36 276.63-24.79 278.06-28.22 280.53-30.73 283.01-33.23 286.54-34.7 290.07-36.18 294.05-36.18L294.05-36.18Q298.1-36.18 301.66-34.81 305.23-33.45 307.82-31.02 310.4-28.59 311.89-25.05 313.38-21.51 313.38-17.33ZM345.46-35.16L345.46-14.18 343.7-17.38 343.7-35.16 345.46-35.16ZM348.98-35.16L348.98-8.11 347.22-11.08 347.22-35.16 348.98-35.16ZM324.76 0L324.76-20.97 326.52-17.77 326.52 0 324.76 0ZM321.24 0L321.24-27.29 323-24.07 323 0 321.24 0ZM342.21 0L321.85-35.16 323.9-35.16 344.26 0 342.21 0ZM346.32 0L326-35.16 328.08-35.16 348.42 0 346.32 0ZM350.42 0L330.13-35.16 332.18-35.16 350.73-3.05 350.73-35.16 352.49-35.16 352.49 0 350.42 0ZM338.09 0L319.48-32.13 319.48 0 317.73 0 317.73-35.16 319.83-35.16 340.11 0 338.09 0ZM377.37-10.55L367.63-10.55 367.63-24.61Q367.63-24.61 377.37-24.61L377.37-24.61Q380.08-24.61 382.02-22.56 383.96-20.51 383.96-17.63L383.96-17.63Q383.96-14.65 382.03-12.6 380.1-10.55 377.37-10.55L377.37-10.55ZM369.38-22.85L369.38-12.3 377.37-12.3Q379.35-12.3 380.75-13.84 382.15-15.38 382.15-17.63L382.15-17.63Q382.15-19.78 380.75-21.31 379.35-22.85 377.37-22.85L377.37-22.85 369.38-22.85ZM365.87-26.37L365.87-8.79 377.37-8.79Q380.83-8.79 383.3-11.36 385.77-13.94 385.77-17.63L385.77-17.63Q385.77-21.24 383.29-23.8 380.81-26.37 377.37-26.37L377.37-26.37 365.87-26.37ZM377.37-7.03L364.11-7.03 364.11-28.13 377.37-28.13Q381.54-28.13 384.56-25.04 387.57-21.95 387.57-17.63L387.57-17.63Q387.57-13.21 384.57-10.12 381.57-7.03 377.37-7.03L377.37-7.03ZM362.35-29.88L362.35-5.27 377.37-5.27Q380.59-5.27 383.35-6.91 386.11-8.54 387.74-11.4 389.38-14.26 389.38-17.63L389.38-17.63Q389.38-20.92 387.74-23.75 386.11-26.59 383.34-28.23 380.57-29.88 377.37-29.88L377.37-29.88 362.35-29.88ZM377.37-3.52L360.6-3.52 360.6-31.64 377.37-31.64Q381.05-31.64 384.24-29.76 387.43-27.88 389.31-24.65 391.19-21.41 391.19-17.63L391.19-17.63Q391.19-13.79 389.31-10.53 387.43-7.28 384.24-5.4 381.05-3.52 377.37-3.52L377.37-3.52ZM358.84-33.4L358.84-1.76 377.37-1.76Q381.54-1.76 385.13-3.87 388.72-5.98 390.86-9.64 392.99-13.31 392.99-17.63L392.99-17.63Q392.99-21.88 390.86-25.52 388.72-29.17 385.12-31.29 381.52-33.4 377.37-33.4L377.37-33.4 358.84-33.4ZM377.37 0L377.37 0 357.08 0 357.08-35.16 377.37-35.16Q382.01-35.16 386.02-32.8 390.04-30.44 392.42-26.4 394.8-22.36 394.8-17.63L394.8-17.63Q394.8-14.04 393.4-10.77 391.99-7.5 389.64-5.14 387.28-2.78 384.06-1.39 380.83 0 377.37 0ZM429.02-11.87L421.6-11.87 422.31-13.62 428.31-13.62 429.02-11.87ZM430.44-8.35L420.23-8.35 420.92-10.11 429.68-10.11 430.44-8.35ZM431.81-4.83L418.87-4.83 419.55-6.59 431.07-6.59 431.81-4.83ZM419.62-38.06L404.58 0 402.68 0 418.67-40.43 420.58-40.43 436.54 0 434.66 0 419.62-38.06ZM406.46 0L419.84-33.89 420.84-31.64 408.34 0 406.46 0ZM410.25 0L421.8-29.25 422.72-26.83 412.15 0 410.25 0ZM414.03 0L423.65-24.41 424.58-21.95 415.91 0 414.03 0ZM431.9-40.43L447.89 0 445.99 0 430.02-40.43 431.9-40.43ZM426.24-40.43L428.12-40.43 444.11 0 442.23 0 426.24-40.43ZM422.46-40.43L424.34-40.43 440.33 0 438.42 0 422.46-40.43ZM450.97 0L450.97-35.16 452.73-35.16 452.73 0 450.97 0ZM461.52 0L461.52-35.16 463.27-35.16 463.27-8.79 476.24-8.79 476.24-7.03 463.27-7.03 463.27-5.27 476.24-5.27 476.24-3.52 463.27-3.52 463.27-1.76 476.24-1.76 476.24 0 461.52 0ZM458 0L458-35.16 459.76-35.16 459.76 0 458 0ZM454.48 0L454.48-35.16 456.24-35.16 456.24 0 454.48 0ZM514.8-11.32Q515.3-11.28 516.03-11.28 516.76-11.28 517.26-11.32 517.76-11.35 518.3-11.51 518.84-11.67 519.15-11.94 519.47-12.21 519.68-12.71 519.89-13.21 519.89-13.92L519.89-13.92 519.89-35.16 521.64-35.16 521.64-13.92Q521.64-9.52 516.03-9.52L516.03-9.52Q513.2-9.52 511.83-10.6L511.83-10.6Q511.63-9.64 511.37-8.91L511.37-8.91Q513.22-7.76 516.03-7.76L516.03-7.76Q519.3-7.76 521.35-9.29 523.4-10.82 523.4-13.92L523.4-13.92 523.4-35.16 525.16-35.16 525.16-13.92Q525.16-10.08 522.58-8.04 520.01-6.01 516.03-6.01L516.03-6.01Q512.93-6.01 510.71-7.28L510.71-7.28Q510.34-6.49 509.85-5.79L509.85-5.79Q512.51-4.25 516.03-4.25L516.03-4.25Q518.3-4.25 520.27-4.88 522.23-5.52 523.72-6.71 525.21-7.91 526.06-9.77 526.92-11.62 526.92-13.92L526.92-13.92 526.92-35.16 528.68-35.16 528.68-13.92Q528.68-10.4 526.95-7.76 525.23-5.13 522.39-3.81 519.55-2.49 516.03-2.49L516.03-2.49Q511.93-2.49 508.8-4.37L508.8-4.37Q508.12-3.59 507.56-3.1L507.56-3.1Q511.2-0.73 516.03-0.73L516.03-0.73Q520.01-0.73 523.26-2.29 526.5-3.86 528.47-6.9 530.43-9.94 530.43-13.92L530.43-13.92 530.43-35.16 532.19-35.16 532.19-13.92Q532.19-10.55 530.91-7.71 529.63-4.88 527.44-2.98 525.26-1.07 522.3-0.02 519.35 1.03 516.03 1.03L516.03 1.03Q510.22 1.03 506.09-1.95L506.09-1.95Q501.82 1.03 496.01 1.03L496.01 1.03Q492.69 1.03 489.74-0.02 486.78-1.07 484.6-2.98 482.41-4.88 481.13-7.71 479.85-10.55 479.85-13.92L479.85-13.92 479.85-35.16 481.61-35.16 481.61-13.92Q481.61-10.91 482.74-8.4 483.88-5.88 485.83-4.22 487.78-2.56 490.41-1.65 493.03-0.73 496.01-0.73L496.01-0.73Q499.89-0.73 503.21-2.5 506.53-4.27 508.47-7.31 510.41-10.35 510.41-13.92L510.41-13.92 510.41-35.16 512.17-35.16 512.17-13.92Q512.17-13.21 512.38-12.71 512.59-12.21 512.9-11.94 513.22-11.67 513.76-11.51 514.3-11.35 514.8-11.32ZM499.87-35.16L501.63-35.16 501.63-13.92Q501.63-9.52 496.01-9.52 490.39-9.52 490.39-13.92L490.39-13.92 490.39-35.16 492.15-35.16 492.15-13.92Q492.15-13.21 492.36-12.71 492.57-12.21 492.88-11.94 493.2-11.67 493.74-11.51 494.28-11.35 494.78-11.32 495.28-11.28 496.01-11.28 496.74-11.28 497.24-11.32 497.74-11.35 498.28-11.51 498.82-11.67 499.13-11.94 499.45-12.21 499.66-12.71 499.87-13.21 499.87-13.92L499.87-13.92 499.87-35.16ZM503.38-35.16L505.14-35.16 505.14-13.92Q505.14-10.08 502.57-8.04 499.99-6.01 496.01-6.01 492.03-6.01 489.45-8.04 486.88-10.08 486.88-13.92L486.88-13.92 486.88-35.16 488.64-35.16 488.64-13.92Q488.64-10.82 490.69-9.29 492.74-7.76 496.01-7.76 499.28-7.76 501.33-9.29 503.38-10.82 503.38-13.92L503.38-13.92 503.38-35.16ZM506.9-35.16L508.66-35.16 508.66-13.92Q508.66-10.4 506.94-7.76 505.21-5.13 502.37-3.81 499.53-2.49 496.01-2.49 492.49-2.49 489.65-3.81 486.81-5.13 485.08-7.76 483.36-10.4 483.36-13.92L483.36-13.92 483.36-35.16 485.12-35.16 485.12-13.92Q485.12-11.62 485.98-9.77 486.83-7.91 488.32-6.71 489.81-5.52 491.77-4.88 493.74-4.25 496.01-4.25 498.28-4.25 500.25-4.88 502.21-5.52 503.7-6.71 505.19-7.91 506.04-9.77 506.9-11.62 506.9-13.92L506.9-13.92 506.9-35.16ZM561.56 0L561.56-17.33Q561.56-20.46 559.63-22.17 557.7-23.88 554.53-23.88L554.53-23.88Q551.84-23.88 549.91-22.02 547.98-20.17 547.98-17.58L547.98-17.58Q547.98-16.11 548.38-14.95 548.77-13.79 549.44-13.02 550.11-12.26 551.04-11.76 551.96-11.25 552.98-11.04 553.99-10.82 555.14-10.82L555.14-10.82Q557.92-10.82 560.22-12.18L560.22-12.18 560.22-10.42Q557.85-9.18 555.11-9.18L555.11-9.18Q553.36-9.18 551.81-9.66 550.26-10.13 548.99-11.1 547.72-12.06 546.97-13.73 546.23-15.41 546.23-17.58L546.23-17.58Q546.23-20.95 548.6-23.29 550.96-25.63 554.53-25.63L554.53-25.63Q558.46-25.63 560.89-23.43 563.32-21.22 563.32-17.33L563.32-17.33 563.32 0 561.56 0ZM566.83-17.33L566.83-17.33 566.83 0 565.07 0 565.07-17.33Q565.07-21.95 562.12-24.67 559.17-27.39 554.53-27.39L554.53-27.39Q550.23-27.39 547.35-24.54 544.47-21.68 544.47-17.58L544.47-17.58Q544.47-15.09 545.34-13.11 546.2-11.13 547.69-9.94 549.18-8.74 551.02-8.12 552.87-7.5 554.92-7.5L554.92-7.5Q557.7-7.5 560.22-8.79L560.22-8.79 560.22-6.93Q557.58-5.83 554.89-5.83L554.89-5.83Q552.48-5.83 550.3-6.58 548.13-7.32 546.42-8.75 544.71-10.18 543.71-12.46 542.71-14.75 542.71-17.58L542.71-17.58Q542.71-22.39 546.12-25.77 549.52-29.15 554.53-29.15L554.53-29.15Q558.04-29.15 560.83-27.72 563.61-26.29 565.22-23.58 566.83-20.87 566.83-17.33ZM570.35-17.33L570.35-17.33 570.35 0 568.59 0 568.59-17.33Q568.59-21.36 566.75-24.48 564.9-27.59 561.71-29.25 558.51-30.91 554.53-30.91L554.53-30.91Q550.74-30.91 547.62-29.11 544.49-27.32 542.72-24.27 540.95-21.22 540.95-17.58L540.95-17.58Q540.95-14.45 542.1-11.88 543.25-9.3 545.19-7.64 547.13-5.98 549.61-5.07 552.09-4.15 554.8-4.15L554.8-4.15Q557.56-4.15 560.22-5.3L560.22-5.3 560.22-3.52Q557.43-2.47 554.75-2.47L554.75-2.47Q550.52-2.47 546.98-4.37 543.44-6.27 541.32-9.77 539.2-13.26 539.2-17.58L539.2-17.58Q539.2-20.65 540.38-23.44 541.56-26.22 543.59-28.25 545.62-30.27 548.47-31.47 551.33-32.67 554.53-32.67L554.53-32.67Q559-32.67 562.6-30.76 566.2-28.86 568.27-25.34 570.35-21.83 570.35-17.33ZM573.86-17.33L573.86-17.33 573.86 0 572.11 0 572.11-17.33Q572.11-22.31 569.79-26.23 567.47-30.15 563.46-32.29 559.46-34.42 554.53-34.42L554.53-34.42Q549.79-34.42 545.86-32.15 541.93-29.88 539.68-26.01 537.44-22.14 537.44-17.58L537.44-17.58Q537.44-14.58 538.4-11.88 539.37-9.18 541.04-7.17 542.71-5.15 544.9-3.69 547.08-2.22 549.61-1.46 552.14-0.71 554.75-0.71L554.75-0.71Q557.63-0.71 560.22-1.81L560.22-1.81 560.22 0Q557.51 0.95 554.65 0.95L554.65 0.95Q551.7 0.95 548.9 0.12 546.11-0.71 543.72-2.33 541.34-3.96 539.54-6.16 537.73-8.37 536.71-11.33 535.68-14.28 535.68-17.58L535.68-17.58Q535.68-21.36 537.11-24.79 538.54-28.22 541.01-30.73 543.49-33.23 547.02-34.7 550.55-36.18 554.53-36.18L554.53-36.18Q558.58-36.18 562.15-34.81 565.71-33.45 568.3-31.02 570.89-28.59 572.37-25.05 573.86-21.51 573.86-17.33ZM599.06-11.87L610.12-35.16 611.87-35.16 600.81-11.87 600.81 0 599.06 0 599.06-11.87ZM595.54-11.87L606.6-35.16 608.36-35.16 597.3-11.87 597.3 0 595.54 0 595.54-11.87ZM592.03-11.87L603.08-35.16 604.84-35.16 593.78-11.87 593.78 0 592.03 0 592.03-11.87ZM589.36-13.65L599.57-35.16 601.33-35.16 590.27-11.87 590.27 0 588.51 0 588.51-11.87 576.72-35.16 578.48-35.16 589.36-13.65ZM589.85-16.65L580.26-35.16 582.02-35.16 590.73-18.58 589.85-16.65ZM591.59-20.51L583.77-35.16 585.56-35.16 592.49-22.44 591.59-20.51ZM593.37-24.34L587.34-35.16 589.1-35.16 594.25-26.27 593.37-24.34ZM631.04-16.72L631.04-16.72 628.25-16.72Q623.13-16.72 620.37-18.81 617.61-20.9 617.61-24.56L617.61-24.56Q617.61-27.98 620.86-30.26 624.1-32.54 629.96-32.54L629.96-32.54Q633.87-32.54 637.25-31.47 640.63-30.4 642.88-28.44L642.88-28.44 641.51-27.34Q639.51-28.98 636.48-29.88 633.45-30.79 629.96-30.79L629.96-30.79Q624.81-30.79 622.09-29.03 619.37-27.27 619.37-24.56L619.37-24.56Q619.37-21.63 621.6-20.06 623.83-18.48 628.25-18.48L628.25-18.48 630.94-18.48Q636.14-18.48 638.91-16.39 641.68-14.31 641.68-10.64L641.68-10.64Q641.68-7.23 638.43-4.94 635.19-2.66 629.33-2.66L629.33-2.66Q625.42-2.66 622.04-3.74 618.66-4.81 616.41-6.76L616.41-6.76 617.78-7.86Q619.78-6.23 622.81-5.32 625.84-4.42 629.33-4.42L629.33-4.42Q634.48-4.42 637.2-6.18 639.92-7.93 639.92-10.64L639.92-10.64Q639.92-13.57 637.69-15.15 635.46-16.72 631.04-16.72ZM631.04-13.21L631.04-13.21 628.25-13.21Q621.47-13.21 617.78-16.3 614.09-19.38 614.09-24.56L614.09-24.56Q614.09-26.93 615.14-29 616.19-31.08 618.16-32.65 620.12-34.23 623.18-35.14 626.23-36.06 629.96-36.06L629.96-36.06Q634.67-36.06 638.78-34.63 642.88-33.2 645.61-30.64L645.61-30.64 644.2-29.59Q641.71-31.84 637.97-33.07 634.23-34.3 629.96-34.3L629.96-34.3Q623.37-34.3 619.61-31.52 615.85-28.74 615.85-24.56L615.85-24.56Q615.85-20.14 619.07-17.55 622.3-14.97 628.25-14.97L628.25-14.97 630.94-14.97Q638.17-14.97 638.17-10.64L638.17-10.64Q638.17-8.69 635.96-7.43 633.75-6.18 629.33-6.18L629.33-6.18Q626.23-6.18 623.57-6.9 620.9-7.62 619.17-8.96L619.17-8.96 620.56-10.03Q623.61-7.93 629.33-7.93L629.33-7.93Q632.99-7.93 634.7-8.69 636.41-9.45 636.41-10.64L636.41-10.64Q636.41-12.04 635.21-12.62 634.02-13.21 631.04-13.21ZM631.04-20.24L631.04-20.24 628.25-20.24Q621.12-20.24 621.12-24.56L621.12-24.56Q621.12-26.51 623.33-27.77 625.54-29.03 629.96-29.03L629.96-29.03Q633.06-29.03 635.72-28.31 638.39-27.59 640.12-26.25L640.12-26.25 638.73-25.17Q635.68-27.27 629.96-27.27L629.96-27.27Q626.3-27.27 624.59-26.51 622.88-25.76 622.88-24.56L622.88-24.56Q622.88-23.17 624.08-22.58 625.27-22 628.25-22L628.25-22 631.04-22Q637.82-22 641.51-18.91 645.2-15.82 645.2-10.64L645.2-10.64Q645.2-8.28 644.15-6.2 643.1-4.13 641.13-2.55 639.17-0.98 636.11-0.06 633.06 0.85 629.33 0.85L629.33 0.85Q624.62 0.85 620.51-0.57 616.41-2 613.68-4.57L613.68-4.57 615.09-5.62Q617.58-3.37 621.32-2.14 625.06-0.9 629.33-0.9L629.33-0.9Q635.92-0.9 639.68-3.69 643.44-6.47 643.44-10.64L643.44-10.64Q643.44-15.06 640.22-17.65 636.99-20.24 631.04-20.24Z" opacity="1" transform="matrix(1,0,0,1,0,0)" fill="#ff5db2" class="undefined-text-1" data-fill-palette-color="secondary" id="text-1"></path></svg></g></svg></g></svg></g></svg></g><g transform="matrix(1,0,0,1,423.5534889387476,0)"><svg viewBox="0 0 217.95360925359347 217.95360925359347" height="217.95360925359347" width="217.95360925359347"><g><svg></svg></g><g id="icon-0"><svg viewBox="0 0 217.95360925359347 217.95360925359347" height="217.95360925359347" width="217.95360925359347"><g><path d="M0 108.977c0-60.186 48.791-108.977 108.977-108.977 60.186 0 108.977 48.791 108.977 108.977 0 60.186-48.791 108.977-108.977 108.977-60.186 0-108.977-48.791-108.977-108.977zM108.977 212.599c57.229 0 103.622-46.393 103.622-103.622 0-57.229-46.393-103.622-103.622-103.623-57.229 0-103.622 46.393-103.623 103.623 0 57.229 46.393 103.622 103.623 103.622z" data-fill-palette-color="accent" fill="#ff5db2" stroke="transparent"></path></g><g transform="matrix(1,0,0,1,43.90710221666215,73.835908662972)"><svg viewBox="0 0 130.13940482026916 70.28179192764948" height="70.28179192764948" width="130.13940482026916"><g><svg xmlns="http://www.w3.org/2000/svg" viewBox="10 32.9949951171875 100 54.0050048828125" x="0" y="0" height="70.28179192764948" width="130.13940482026916" class="icon-s-0" data-fill-palette-color="accent" id="s-0"><path d="M109 85H92.1a15.07 15.07 0 0 0 7.6-13.09h0A15.09 15.09 0 0 0 84.62 56.82h-0.79a23.82 23.82 0 0 0-47.65 0h-0.79A15.09 15.09 0 0 0 20.29 71.91h0A15.07 15.07 0 0 0 27.9 85H11a1 1 0 0 0 0 2h98a1 1 0 0 0 0-2ZM35.38 85a13.09 13.09 0 1 1 0-26.18h2.79v-2a21.82 21.82 0 1 1 43.65 0v2h2.79a13.09 13.09 0 1 1 0 26.18Z" fill="#ff5db2" data-fill-palette-color="accent"></path></svg></g></svg></g></svg></g></svg></g></svg></g><defs></defs></svg><rect width="395.52" height="134.3788896099396" fill="none" stroke="none" visibility="hidden"></rect></g></svg></g></svg>